<svg xmlns="http://www.w3.org/2000/svg" xmlns:xlink="http://www.w3.org/1999/xlink" xmlns:s="https://github.com/nturley/netlistsvg" width="494" height="359.5">
  <style>svg {
    stroke:#000;
    fill:none;
  }
  text {
    fill:#000;
    stroke:none;
    font-size:10px;
    font-weight: bold;
    font-family: "Courier New", monospace;
  }
  .nodelabel {
    text-anchor: middle;
  }
  .inputPortLabel {
    text-anchor: end;
  }
  .splitjoinBody {
    fill:#000;
  }</style>
  <g s:type="generic" transform="translate(233,22)" s:width="30" s:height="40" id="cell_dff0">
    <text x="15" y="-4" class="nodelabel cell_dff0" s:attribute="ref">udp_dff$P_pp$PKG$sN</text>
    <rect width="30" height="140" s:generic="body" class="cell_dff0"/>
    <g transform="translate(0,10)" s:x="0" s:y="10" s:pid="in0" id="port_dff0~CLK">
      <text x="-3" y="-4" class="inputPortLabel cell_dff0">CLK</text>
    </g>
    <g transform="translate(0,30)" s:x="0" s:y="10" s:pid="in0" id="port_dff0~D">
      <text x="-3" y="-4" class="inputPortLabel cell_dff0">D</text>
    </g>
    <g transform="translate(0,50)" s:x="0" s:y="10" s:pid="in0" id="port_dff0~KAPWR">
      <text x="-3" y="-4" class="inputPortLabel cell_dff0">KAPWR</text>
    </g>
    <g transform="translate(0,70)" s:x="0" s:y="10" s:pid="in0" id="port_dff0~NOTIFIER">
      <text x="-3" y="-4" class="inputPortLabel cell_dff0">NOTIFIER</text>
    </g>
    <g transform="translate(0,90)" s:x="0" s:y="10" s:pid="in0" id="port_dff0~SLEEP_B">
      <text x="-3" y="-4" class="inputPortLabel cell_dff0">SLEEP_B</text>
    </g>
    <g transform="translate(0,110)" s:x="0" s:y="10" s:pid="in0" id="port_dff0~VGND">
      <text x="-3" y="-4" class="inputPortLabel cell_dff0">VGND</text>
    </g>
    <g transform="translate(0,130)" s:x="0" s:y="10" s:pid="in0" id="port_dff0~VPWR">
      <text x="-3" y="-4" class="inputPortLabel cell_dff0">VPWR</text>
    </g>
    <g transform="translate(30,10)" s:x="30" s:y="10" s:pid="out0" id="port_dff0~Q">
      <text x="5" y="-4" style="fill:#000; stroke:none" class="cell_dff0">Q</text>
    </g>
  </g>
  <g s:type="generic" transform="translate(90,87.5)" s:width="30" s:height="40" id="cell_mux_2to10">
    <text x="15" y="-4" class="nodelabel cell_mux_2to10" s:attribute="ref">udp_mux_2to1</text>
    <rect width="30" height="60" s:generic="body" class="cell_mux_2to10"/>
    <g transform="translate(0,10)" s:x="0" s:y="10" s:pid="in0" id="port_mux_2to10~A0">
      <text x="-3" y="-4" class="inputPortLabel cell_mux_2to10">A0</text>
    </g>
    <g transform="translate(0,30)" s:x="0" s:y="10" s:pid="in0" id="port_mux_2to10~A1">
      <text x="-3" y="-4" class="inputPortLabel cell_mux_2to10">A1</text>
    </g>
    <g transform="translate(0,50)" s:x="0" s:y="10" s:pid="in0" id="port_mux_2to10~S">
      <text x="-3" y="-4" class="inputPortLabel cell_mux_2to10">S</text>
    </g>
    <g transform="translate(30,10)" s:x="30" s:y="10" s:pid="out0" id="port_mux_2to10~X">
      <text x="5" y="-4" style="fill:#000; stroke:none" class="cell_mux_2to10">X</text>
    </g>
  </g>
  <g s:type="generic" transform="translate(343,22)" s:width="30" s:height="40" id="cell_pwrgood_pp0">
    <text x="15" y="-4" class="nodelabel cell_pwrgood_pp0" s:attribute="ref">udp_pwrgood_pp$PG</text>
    <rect width="30" height="60" s:generic="body" class="cell_pwrgood_pp0"/>
    <g transform="translate(0,10)" s:x="0" s:y="10" s:pid="in0" id="port_pwrgood_pp0~UDP_IN">
      <text x="-3" y="-4" class="inputPortLabel cell_pwrgood_pp0">UDP_IN</text>
    </g>
    <g transform="translate(0,30)" s:x="0" s:y="10" s:pid="in0" id="port_pwrgood_pp0~VGND">
      <text x="-3" y="-4" class="inputPortLabel cell_pwrgood_pp0">VGND</text>
    </g>
    <g transform="translate(0,50)" s:x="0" s:y="10" s:pid="in0" id="port_pwrgood_pp0~VPWR">
      <text x="-3" y="-4" class="inputPortLabel cell_pwrgood_pp0">VPWR</text>
    </g>
    <g transform="translate(30,10)" s:x="30" s:y="10" s:pid="out0" id="port_pwrgood_pp0~UDP_OUT">
      <text x="5" y="-4" style="fill:#000; stroke:none" class="cell_pwrgood_pp0">UDP_OUT</text>
    </g>
  </g>
  <g s:type="outputExt" transform="translate(452,22.5)" s:width="30" s:height="20" id="cell_Q">
    <text x="15" y="-4" class="nodelabel cell_Q" s:attribute="ref">Q</text>
    <s:alias val="$_outputExt_"/>
    <path d="M30,0 L30,20 L15,20 L0,10 L15,0 Z" class="cell_Q"/>
    <g s:x="0" s:y="10" s:pid="A"/>
  </g>
  <g s:type="inputExt" transform="translate(90,22.5)" s:width="30" s:height="20" id="cell_CLK">
    <text x="15" y="-4" class="nodelabel cell_CLK" s:attribute="ref">CLK</text>
    <s:alias val="$_inputExt_"/>
    <path d="M0,0 L0,20 L15,20 L30,10 L15,0 Z" class="cell_CLK"/>
    <g s:x="28" s:y="10" s:pid="Y"/>
  </g>
  <g s:type="inputExt" transform="translate(12,88)" s:width="30" s:height="20" id="cell_D">
    <text x="15" y="-4" class="nodelabel cell_D" s:attribute="ref">D</text>
    <s:alias val="$_inputExt_"/>
    <path d="M0,0 L0,20 L15,20 L30,10 L15,0 Z" class="cell_D"/>
    <g s:x="28" s:y="10" s:pid="Y"/>
  </g>
  <g s:type="inputExt" transform="translate(12,153)" s:width="30" s:height="20" id="cell_SCD">
    <text x="15" y="-4" class="nodelabel cell_SCD" s:attribute="ref">SCD</text>
    <s:alias val="$_inputExt_"/>
    <path d="M0,0 L0,20 L15,20 L30,10 L15,0 Z" class="cell_SCD"/>
    <g s:x="28" s:y="10" s:pid="Y"/>
  </g>
  <g s:type="inputExt" transform="translate(12,218)" s:width="30" s:height="20" id="cell_SCE">
    <text x="15" y="-4" class="nodelabel cell_SCE" s:attribute="ref">SCE</text>
    <s:alias val="$_inputExt_"/>
    <path d="M0,0 L0,20 L15,20 L30,10 L15,0 Z" class="cell_SCE"/>
    <g s:x="28" s:y="10" s:pid="Y"/>
  </g>
  <g s:type="inputExt" transform="translate(90,195.5)" s:width="30" s:height="20" id="cell_SLEEP_B">
    <text x="15" y="-4" class="nodelabel cell_SLEEP_B" s:attribute="ref">SLEEP_B</text>
    <s:alias val="$_inputExt_"/>
    <path d="M0,0 L0,20 L15,20 L30,10 L15,0 Z" class="cell_SLEEP_B"/>
    <g s:x="28" s:y="10" s:pid="Y"/>
  </g>
  <g s:type="constant" transform="translate(90,260.5)" s:width="30" s:height="20" id="cell_1">
    <text x="15" y="-4" class="nodelabel cell_1" s:attribute="ref">1</text>
    <s:alias val="$_constant_"/>
    <rect width="30" height="20" class="cell_1"/>
    <g s:x="30" s:y="10" s:pid="Y"/>
  </g>
  <g s:type="constant" transform="translate(90,325.5)" s:width="30" s:height="20" id="cell_0">
    <text x="15" y="-4" class="nodelabel cell_0" s:attribute="ref">0</text>
    <s:alias val="$_constant_"/>
    <rect width="30" height="20" class="cell_0"/>
    <g s:x="30" s:y="10" s:pid="Y"/>
  </g>
  <line x1="118" x2="233" y1="32.5" y2="32.5" class="net_3"/>
  <line x1="121" x2="154" y1="98" y2="98" class="net_8"/>
  <line x1="154" x2="154" y1="98" y2="52.5" class="net_8"/>
  <line x1="154" x2="233" y1="52.5" y2="52.5" class="net_8"/>
  <line x1="120" x2="164" y1="270.5" y2="270.5" class="net_10"/>
  <line x1="164" x2="164" y1="270.5" y2="72.5" class="net_10"/>
  <circle cx="164" cy="270.5" r="2" style="fill:#000" class="net_10"/>
  <line x1="164" x2="233" y1="72.5" y2="72.5" class="net_10"/>
  <line x1="120" x2="164" y1="270.5" y2="270.5" class="net_10"/>
  <line x1="164" x2="164" y1="270.5" y2="152.5" class="net_10"/>
  <circle cx="164" cy="152.5" r="2" style="fill:#000" class="net_10"/>
  <line x1="164" x2="233" y1="152.5" y2="152.5" class="net_10"/>
  <line x1="120" x2="164" y1="270.5" y2="270.5" class="net_10"/>
  <line x1="164" x2="164" y1="270.5" y2="346.5" class="net_10"/>
  <line x1="164" x2="291" y1="346.5" y2="346.5" class="net_10"/>
  <line x1="291" x2="291" y1="346.5" y2="72.5" class="net_10"/>
  <line x1="291" x2="343" y1="72.5" y2="72.5" class="net_10"/>
  <line x1="118" x2="154" y1="205.5" y2="205.5" class="net_7"/>
  <line x1="154" x2="154" y1="205.5" y2="112.5" class="net_7"/>
  <line x1="154" x2="233" y1="112.5" y2="112.5" class="net_7"/>
  <line x1="120" x2="174" y1="335.5" y2="335.5" class="net_11"/>
  <line x1="174" x2="174" y1="335.5" y2="132.5" class="net_11"/>
  <circle cx="174" cy="335.5" r="2" style="fill:#000" class="net_11"/>
  <line x1="174" x2="233" y1="132.5" y2="132.5" class="net_11"/>
  <line x1="120" x2="281" y1="335.5" y2="335.5" class="net_11"/>
  <line x1="281" x2="281" y1="335.5" y2="52.5" class="net_11"/>
  <line x1="281" x2="343" y1="52.5" y2="52.5" class="net_11"/>
  <line x1="40" x2="90" y1="98" y2="98" class="net_4"/>
  <line x1="40" x2="52" y1="163" y2="163" class="net_5"/>
  <line x1="52" x2="52" y1="163" y2="118" class="net_5"/>
  <line x1="52" x2="90" y1="118" y2="118" class="net_5"/>
  <line x1="40" x2="62" y1="228" y2="228" class="net_6"/>
  <line x1="62" x2="62" y1="228" y2="138" class="net_6"/>
  <line x1="62" x2="90" y1="138" y2="138" class="net_6"/>
  <line x1="264" x2="343" y1="32.5" y2="32.5" class="net_9"/>
  <line x1="374" x2="452" y1="32.5" y2="32.5" class="net_2"/>
</svg>
