<svg xmlns="http://www.w3.org/2000/svg" xmlns:xlink="http://www.w3.org/1999/xlink" xmlns:s="https://github.com/nturley/netlistsvg" width="395" height="119">
  <style>svg {
    stroke:#000;
    fill:none;
  }
  text {
    fill:#000;
    stroke:none;
    font-size:10px;
    font-weight: bold;
    font-family: "Courier New", monospace;
  }
  .nodelabel {
    text-anchor: middle;
  }
  .inputPortLabel {
    text-anchor: end;
  }
  .splitjoinBody {
    fill:#000;
  }</style>
  <g s:type="and" transform="translate(142,27)" s:width="30" s:height="25" id="cell_$and$./cells/lsbufiso0p/sky130_fd_sc_lp__lsbufiso0p.functional.v:55$2">
    <s:alias val="$and"/>
    <s:alias val="$logic_and"/>
    <s:alias val="$_AND_"/>
    <path d="M0,0 L0,25 L15,25 A15 12.5 0 0 0 15,0 Z" class="cell_$and$./cells/lsbufiso0p/sky130_fd_sc_lp__lsbufiso0p.functional.v:55$2"/>
    <g s:x="0" s:y="5" s:pid="A"/>
    <g s:x="0" s:y="20" s:pid="B"/>
    <g s:x="30" s:y="12.5" s:pid="Y"/>
  </g>
  <g s:type="not" transform="translate(77,22)" s:width="30" s:height="20" id="cell_$not$./cells/lsbufiso0p/sky130_fd_sc_lp__lsbufiso0p.functional.v:0$1">
    <s:alias val="$_NOT_"/>
    <s:alias val="$not"/>
    <path d="M0,0 L0,20 L20,10 Z" class="cell_$not$./cells/lsbufiso0p/sky130_fd_sc_lp__lsbufiso0p.functional.v:0$1"/>
    <circle cx="23" cy="10" r="3" class="cell_$not$./cells/lsbufiso0p/sky130_fd_sc_lp__lsbufiso0p.functional.v:0$1"/>
    <g s:x="0" s:y="10" s:pid="A"/>
    <g s:x="25" s:y="10" s:pid="Y"/>
  </g>
  <g s:type="generic" transform="translate(244,29)" s:width="30" s:height="40" id="cell_pwrgood_pp0">
    <text x="15" y="-4" class="nodelabel cell_pwrgood_pp0" s:attribute="ref">udp_pwrgood_pp$PG</text>
    <rect width="30" height="60" s:generic="body" class="cell_pwrgood_pp0"/>
    <g transform="translate(0,10)" s:x="0" s:y="10" s:pid="in0" id="port_pwrgood_pp0~UDP_IN">
      <text x="-3" y="-4" class="inputPortLabel cell_pwrgood_pp0">UDP_IN</text>
    </g>
    <g transform="translate(0,30)" s:x="0" s:y="10" s:pid="in0" id="port_pwrgood_pp0~VGND">
      <text x="-3" y="-4" class="inputPortLabel cell_pwrgood_pp0">VGND</text>
    </g>
    <g transform="translate(0,50)" s:x="0" s:y="10" s:pid="in0" id="port_pwrgood_pp0~VPWR">
      <text x="-3" y="-4" class="inputPortLabel cell_pwrgood_pp0">VPWR</text>
    </g>
    <g transform="translate(30,10)" s:x="30" s:y="10" s:pid="out0" id="port_pwrgood_pp0~UDP_OUT">
      <text x="5" y="-4" style="fill:#000; stroke:none" class="cell_pwrgood_pp0">UDP_OUT</text>
    </g>
  </g>
  <g s:type="outputExt" transform="translate(353,29.5)" s:width="30" s:height="20" id="cell_X">
    <text x="15" y="-4" class="nodelabel cell_X" s:attribute="ref">X</text>
    <s:alias val="$_outputExt_"/>
    <path d="M30,0 L30,20 L15,20 L0,10 L15,0 Z" class="cell_X"/>
    <g s:x="0" s:y="10" s:pid="A"/>
  </g>
  <g s:type="inputExt" transform="translate(12,22)" s:width="30" s:height="20" id="cell_SLEEP">
    <text x="15" y="-4" class="nodelabel cell_SLEEP" s:attribute="ref">SLEEP</text>
    <s:alias val="$_inputExt_"/>
    <path d="M0,0 L0,20 L15,20 L30,10 L15,0 Z" class="cell_SLEEP"/>
    <g s:x="28" s:y="10" s:pid="Y"/>
  </g>
  <g s:type="inputExt" transform="translate(77,87)" s:width="30" s:height="20" id="cell_A">
    <text x="15" y="-4" class="nodelabel cell_A" s:attribute="ref">A</text>
    <s:alias val="$_inputExt_"/>
    <path d="M0,0 L0,20 L15,20 L30,10 L15,0 Z" class="cell_A"/>
    <g s:x="28" s:y="10" s:pid="Y"/>
  </g>
  <line x1="102" x2="142" y1="32" y2="32" class="net_5"/>
  <line x1="105" x2="117" y1="97" y2="97" class="net_4"/>
  <line x1="117" x2="117" y1="97" y2="47" class="net_4"/>
  <line x1="117" x2="142" y1="47" y2="47" class="net_4"/>
  <line x1="40" x2="77" y1="32" y2="32" class="net_3"/>
  <line x1="172" x2="244" y1="39.5" y2="39.5" class="net_6"/>
  <line x1="275" x2="353" y1="39.5" y2="39.5" class="net_2"/>
</svg>
