<svg xmlns="http://www.w3.org/2000/svg" xmlns:xlink="http://www.w3.org/1999/xlink" xmlns:s="https://github.com/nturley/netlistsvg" width="265" height="97">
  <style>svg {
    stroke:#000;
    fill:none;
  }
  text {
    fill:#000;
    stroke:none;
    font-size:10px;
    font-weight: bold;
    font-family: "Courier New", monospace;
  }
  .nodelabel {
    text-anchor: middle;
  }
  .inputPortLabel {
    text-anchor: end;
  }
  .splitjoinBody {
    fill:#000;
  }</style>
  <g s:type="generic" transform="translate(114,22)" s:width="30" s:height="40" id="cell_pwrgood_pp0">
    <text x="15" y="-4" class="nodelabel cell_pwrgood_pp0" s:attribute="ref">udp_pwrgood_pp$PG</text>
    <rect width="30" height="60" s:generic="body" class="cell_pwrgood_pp0"/>
    <g transform="translate(0,10)" s:x="0" s:y="10" s:pid="in0" id="port_pwrgood_pp0~UDP_IN">
      <text x="-3" y="-4" class="inputPortLabel cell_pwrgood_pp0">UDP_IN</text>
    </g>
    <g transform="translate(0,30)" s:x="0" s:y="10" s:pid="in0" id="port_pwrgood_pp0~VGND">
      <text x="-3" y="-4" class="inputPortLabel cell_pwrgood_pp0">VGND</text>
    </g>
    <g transform="translate(0,50)" s:x="0" s:y="10" s:pid="in0" id="port_pwrgood_pp0~VPWR">
      <text x="-3" y="-4" class="inputPortLabel cell_pwrgood_pp0">VPWR</text>
    </g>
    <g transform="translate(30,10)" s:x="30" s:y="10" s:pid="out0" id="port_pwrgood_pp0~UDP_OUT">
      <text x="5" y="-4" style="fill:#000; stroke:none" class="cell_pwrgood_pp0">UDP_OUT</text>
    </g>
  </g>
  <g s:type="outputExt" transform="translate(223,22.5)" s:width="30" s:height="20" id="cell_X">
    <text x="15" y="-4" class="nodelabel cell_X" s:attribute="ref">X</text>
    <s:alias val="$_outputExt_"/>
    <path d="M30,0 L30,20 L15,20 L0,10 L15,0 Z" class="cell_X"/>
    <g s:x="0" s:y="10" s:pid="A"/>
  </g>
  <g s:type="inputExt" transform="translate(12,22.5)" s:width="30" s:height="20" id="cell_A">
    <text x="15" y="-4" class="nodelabel cell_A" s:attribute="ref">A</text>
    <s:alias val="$_inputExt_"/>
    <path d="M0,0 L0,20 L15,20 L30,10 L15,0 Z" class="cell_A"/>
    <g s:x="28" s:y="10" s:pid="Y"/>
  </g>
  <line x1="40" x2="114" y1="32.5" y2="32.5" class="net_3"/>
  <line x1="145" x2="223" y1="32.5" y2="32.5" class="net_2"/>
</svg>
